<svg xmlns="http://www.w3.org/2000/svg" version="1.1" xmlns:xlink="http://www.w3.org/1999/xlink" xmlns:svgjs="http://svgjs.com/svgjs" width="512" height="512" x="0" y="0" viewBox="0 0 512 512" style="enable-background:new 0 0 512 512" xml:space="preserve" class=""><g><g xmlns="http://www.w3.org/2000/svg"><path d="m377 196c4.37 0 8.71.17 13 .51v-105.51c0-8.28-6.72-15-15-15h-45v-30h15c8.284 0 15-6.716 15-15s-6.716-15-15-15h-60c-8.284 0-15 6.716-15 15s6.716 15 15 15h15v30h-90v-30h15c8.284 0 15-6.716 15-15s-6.716-15-15-15h-60c-8.284 0-15 6.716-15 15s6.716 15 15 15h15v30h-90v-30h15c8.284 0 15-6.716 15-15s-6.716-15-15-15h-60c-8.284 0-15 6.716-15 15s6.716 15 15 15h15v30h-45c-8.28 0-15 6.72-15 15v270c0 8.28 6.72 15 15 15h197.67c-.44-4.94-.67-9.94-.67-15 0-90.98 74.02-165 165-165zm-107-45h30c8.28 0 15 6.72 15 15s-6.72 15-15 15h-30c-8.28 0-15-6.72-15-15s6.72-15 15-15zm-90 0h30c8.28 0 15 6.72 15 15s-6.72 15-15 15h-30c-8.28 0-15-6.72-15-15s6.72-15 15-15zm-60 150h-30c-8.28 0-15-6.72-15-15s6.72-15 15-15h30c8.28 0 15 6.72 15 15s-6.72 15-15 15zm0-60h-30c-8.28 0-15-6.72-15-15s6.72-15 15-15h30c8.28 0 15 6.72 15 15s-6.72 15-15 15zm0-60h-30c-8.28 0-15-6.72-15-15s6.72-15 15-15h30c8.28 0 15 6.72 15 15s-6.72 15-15 15zm60 60c-8.28 0-15-6.72-15-15s6.72-15 15-15h30c8.28 0 15 6.72 15 15s-6.72 15-15 15z" fill="#AE363A" data-original="#AE363A" style="" class=""></path><path d="m377 226c-74.44 0-135 60.56-135 135s60.56 135 135 135 135-60.56 135-135-60.56-135-135-135zm30 150h-30c-8.28 0-15-6.72-15-15v-60c0-8.28 6.72-15 15-15s15 6.72 15 15v45h15c8.28 0 15 6.72 15 15s-6.72 15-15 15z" fill="#AE363A" data-original="#AE363A" style="" class=""></path></g></g></svg>