<svg xmlns="http://www.w3.org/2000/svg" version="1.1" xmlns:xlink="http://www.w3.org/1999/xlink" xmlns:svgjs="http://svgjs.com/svgjs" width="512" height="512" x="0" y="0" viewBox="0 0 512 512" style="enable-background:new 0 0 512 512" xml:space="preserve" class="hovered-paths"><g><path xmlns="http://www.w3.org/2000/svg" d="m502.246094 90.949219-241-90c-3.382813-1.265625-7.109375-1.265625-10.492188 0l-241 90c-5.851562 2.179687-9.753906 7.855469-9.753906 14.050781v330c0 8.285156 6.714844 15 15 15 7.597656 0 13.875-5.648438 14.863281-12.972656l.90625 2.714844c2.625 7.875 11.128907 12.101562 18.972657 9.488281 7.859374-2.621094 12.105468-11.117188 9.488281-18.972657l-29.230469-87.691406v-215.953125l61 22.78125v105.605469c0 22.574219 18.949219 42.589844 53.363281 56.355469 30.0625 12.023437 69.707031 18.644531 111.636719 18.644531s81.574219-6.621094 111.636719-18.644531c34.414062-13.765625 53.363281-33.78125 53.363281-56.355469v-105.605469l81.246094-30.34375c5.867187-2.1875 9.753906-7.789062 9.753906-14.050781s-3.886719-11.863281-9.753906-14.050781zm-111.246094 164.050781c0 8.929688-13.542969 20.113281-34.503906 28.5-26.601563 10.640625-62.292969 16.5-100.496094 16.5s-73.894531-5.859375-100.496094-16.5c-20.960937-8.382812-34.503906-19.570312-34.503906-28.5v-94.402344l129.753906 48.453125c3.382813 1.265625 7.109375 1.265625 10.492188 0l129.753906-48.453125zm-135-76.011719c-5.8125-2.183593-157.84375-58.945312-157.957031-58.988281h157.957031c8.285156 0 15-6.714844 15-15s-6.714844-15-15-15h-157.957031l157.957031-58.988281 198.125 73.988281c-18.574219 6.9375-178.621094 66.703125-198.125 73.988281zm0 0" fill="#AE363A" data-original="#AE363A" style="" class="hovered-path"></path></g></svg>