<svg xmlns="http://www.w3.org/2000/svg" version="1.1" xmlns:xlink="http://www.w3.org/1999/xlink" xmlns:svgjs="http://svgjs.com/svgjs" width="512" height="512" x="0" y="0" viewBox="0 0 512 512" style="enable-background:new 0 0 512 512" xml:space="preserve"><g><g xmlns="http://www.w3.org/2000/svg" id="XMLID_1844_"><g id="XMLID_290_"><path id="XMLID_892_" d="m482 0h-398c-5.523 0-10 4.478-10 10v76h-44c-5.523 0-10 4.478-10 10v379c0 20.401 16.598 37 37 37h398c20.402 0 37-16.598 37-37v-134.042c0-5.522-4.477-10-10-10s-10 4.478-10 10v134.042c0 9.374-7.626 17-17 17h-365.153c2.647-5.094 4.153-10.873 4.153-17v-455h378v230.958c0 5.522 4.477 10 10 10s10-4.478 10-10v-240.958c0-5.522-4.477-10-10-10zm-442 475v-369h34v369c0 9.374-7.626 17-17 17s-17-7.626-17-17z" fill="#fff" data-original="#fff" style=""></path><path id="XMLID_894_" d="m129.05 149.019c5.523 0 10-4.478 10-10v-35.794l27.668 40.065c2.881 4.158 7.706 5.916 12.295 4.484 4.669-1.46 7.687-5.796 7.687-11.047v-65.708c0-5.522-4.477-10-10-10s-10 4.478-10 10v37.05l-29.422-42.604c-2.487-3.602-7.027-5.163-11.205-3.864-4.178 1.303-7.024 5.171-7.024 9.547v67.872c.001 5.521 4.478 9.999 10.001 9.999z" fill="#fff" data-original="#fff" style=""></path><path id="XMLID_908_" d="m245.353 81.019c5.523 0 10-4.478 10-10s-4.477-10-10-10h-28.653c-5.523 0-10 4.478-10 10v68c0 5.522 4.477 10 10 10h28.653c5.523 0 10-4.478 10-10s-4.477-10-10-10h-18.653v-13.999h16.54c5.523 0 10-4.478 10-10s-4.477-10-10-10h-16.54v-14.001z" fill="#fff" data-original="#fff" style=""></path><path id="XMLID_909_" d="m416.488 129.019c-6.342 0-12.431-2.54-16.287-6.795-3.709-4.093-10.033-4.402-14.125-.693s-4.403 10.033-.694 14.125c7.698 8.492 19.035 13.363 31.106 13.363 15.058 0 27.713-9.664 30.091-22.979 1.799-10.079-2.7-23.218-20.726-29.866-8.093-2.985-15.646-6.23-18.229-7.359-1.071-.962-1.086-2.217-.985-2.926.132-.916.819-3.16 4.357-4.226 8.769-2.641 17.054 3.832 17.333 4.054 4.228 3.496 10.492 2.935 14.028-1.271 3.554-4.228 3.007-10.535-1.22-14.089-.667-.562-16.563-13.668-35.91-7.844-9.953 2.999-16.997 10.867-18.385 20.534-1.307 9.106 2.642 17.868 10.307 22.864.442.288.905.54 1.387.755.396.177 9.804 4.365 20.396 8.271 2.05.756 8.681 3.538 7.958 7.587-.557 3.123-4.693 6.495-10.402 6.495z" fill="#fff" data-original="#fff" style=""></path><path id="XMLID_912_" d="m286.959 141.323c1.626 4.611 5.986 7.696 10.866 7.696.026 0 .053 0 .079-.001 4.912-.033 9.268-3.186 10.839-7.844.029-.086.057-.173.084-.26l10.971-35.709 10.921 35.716c.041.135.085.269.132.401 1.626 4.611 5.986 7.696 10.866 7.696.025 0 .051 0 .077-.001 4.911-.032 9.267-3.184 10.84-7.841.14-.412.252-.834.336-1.262l13.203-66.835c1.07-5.418-2.455-10.678-7.873-11.748-5.418-1.066-10.678 2.454-11.749 7.873l-6.612 33.475-10.576-34.585c-1.616-5.282-7.208-8.255-12.487-6.639-3.563 1.089-6.068 3.99-6.829 7.383l-10.399 33.848-6.596-33.596c-1.063-5.419-6.318-8.949-11.739-7.886-5.419 1.063-8.95 6.319-7.886 11.739l13.15 66.979c.094.477.222.945.382 1.401z" fill="#fff" data-original="#fff" style=""></path><path id="XMLID_926_" d="m119 391.958c0 5.522 4.477 10 10 10h168c5.523 0 10-4.478 10-10v-192c0-5.522-4.477-10-10-10h-168c-5.523 0-10 4.478-10 10zm20-77.202 29.491-29.491 21.001 21c.003.004.006.008.01.011.003.003.008.006.011.01l75.671 75.671h-126.184zm148 60.734-76.285-76.284 40.493-40.493 35.792 35.791zm0-165.532v56.261l-28.72-28.72c-3.905-3.904-10.237-3.904-14.143 0l-47.564 47.564-21.011-21.011c-3.905-3.905-10.237-3.904-14.142 0l-22.42 22.42v-76.514z" fill="#fff" data-original="#fff" style=""></path><path id="XMLID_1008_" d="m437 381.958h-90c-5.523 0-10 4.478-10 10s4.477 10 10 10h90c5.523 0 10-4.478 10-10s-4.477-10-10-10z" fill="#fff" data-original="#fff" style=""></path><path id="XMLID_1009_" d="m437 237.958h-90c-5.523 0-10 4.478-10 10s4.477 10 10 10h90c5.523 0 10-4.478 10-10s-4.477-10-10-10z" fill="#fff" data-original="#fff" style=""></path><path id="XMLID_1011_" d="m437 285.958h-90c-5.523 0-10 4.478-10 10s4.477 10 10 10h90c5.523 0 10-4.478 10-10s-4.477-10-10-10z" fill="#fff" data-original="#fff" style=""></path><path id="XMLID_1014_" d="m437 189.958h-90c-5.523 0-10 4.478-10 10s4.477 10 10 10h90c5.523 0 10-4.478 10-10s-4.477-10-10-10z" fill="#fff" data-original="#fff" style=""></path><path id="XMLID_1026_" d="m437 333.958h-90c-5.523 0-10 4.478-10 10s4.477 10 10 10h90c5.523 0 10-4.478 10-10s-4.477-10-10-10z" fill="#fff" data-original="#fff" style=""></path><path id="XMLID_1027_" d="m129 458h308c5.523 0 10-4.478 10-10s-4.477-10-10-10h-308c-5.523 0-10 4.478-10 10s4.477 10 10 10z" fill="#fff" data-original="#fff" style=""></path><path id="XMLID_1032_" d="m482 285.96c-2.64 0-5.21 1.07-7.07 2.93s-2.93 4.43-2.93 7.07c0 2.63 1.07 5.21 2.93 7.07 1.86 1.859 4.43 2.93 7.07 2.93 2.63 0 5.21-1.07 7.07-2.93s2.93-4.44 2.93-7.07-1.07-5.21-2.93-7.07-4.44-2.93-7.07-2.93z" fill="#fff" data-original="#fff" style=""></path></g></g></g></svg>