<svg width="144" height="47" viewBox="0 0 144 47" xmlns="http://www.w3.org/2000/svg"><g fill="none" fill-rule="evenodd"><path d="M72.5 4.3h4.3V1.5h-6.55v3.55h1.5a.75.75 0 01.75-.75z" fill="#FFCC75"></path><path fill="#F2EBD9" d="M70.25 33.167h5.25V42.5h-5.25zM63.5 33.167h5.25V42.5H63.5z"></path><path fill="#FFF" d="M63.5 44h12v1.5h-12zM57 43.25V29.5h-9.5v16h10.25V44a.75.75 0 01-.75-.75zm-5.833-7.833a.75.75 0 01-1.5 0v-3a.75.75 0 011.5 0v3zm3.666 0a.75.75 0 01-1.5 0v-3a.75.75 0 011.5 0v3zM91.5 45.5v-16H82v13.75a.75.75 0 01-.75.75v1.5H91.5zm-3.667-13.083a.75.75 0 011.5 0v3a.75.75 0 01-1.5 0v-3zm-3.666 0a.75.75 0 011.5 0v3a.75.75 0 01-1.5 0v-3z"></path><path d="M81.25 44a.75.75 0 01-.75-.75V19.4h-5.25a.75.75 0 01-.75-.75H73a.75.75 0 01-.75.75H58.5v23.85a.75.75 0 01-.75.75v1.5H62V32.417a.75.75 0 01.75-.75h13.5a.75.75 0 01.75.75V45.5h4.25V44zM69.5 29.167a3.637 3.637 0 01-3.633-3.634A3.638 3.638 0 0169.5 21.9a3.637 3.637 0 013.633 3.633 3.638 3.638 0 01-3.633 3.634z" fill="#FFF"></path><path d="M69.5 23.4a2.136 2.136 0 00-2.133 2.133c0 1.177.957 2.134 2.133 2.134a2.136 2.136 0 002.133-2.134A2.136 2.136 0 0069.5 23.4z" fill="#98D9D5"></path><path fill="#F2EBD9" d="M47.5 25.5H57V28h-9.5zM82 25.5h9.5V28H82z"></path><path d="M74.5 18.65a.75.75 0 01.75-.75h3.844L69.5 10.307 59.906 17.9H72.25a.75.75 0 01.75.75h1.5z" fill="#FF6E1D"></path><path d="M92.25 24H82v-5.35a.738.738 0 00-.005-.082c0-.007-.002-.013-.003-.02a.759.759 0 00-.01-.06l-.006-.023a.756.756 0 00-.016-.055l-.008-.023a.76.76 0 00-.06-.122l-.013-.022a.762.762 0 00-.033-.047l-.013-.018a.754.754 0 00-.053-.059l-.006-.005a.715.715 0 00-.054-.048l-.005-.004L70.25 8.987V1.5h6.55v2.8h-4.3a.75.75 0 000 1.5h5.05a.75.75 0 00.75-.75V.75a.75.75 0 00-.75-.75H69.5a.75.75 0 00-.75.75v8.237l-11.466 9.075-.004.004a.762.762 0 00-.054.048l-.006.005a.754.754 0 00-.053.059l-.013.018a.762.762 0 00-.033.047l-.014.022a.772.772 0 00-.059.122l-.008.023a.729.729 0 00-.016.055l-.006.023a.751.751 0 00-.01.06c-.001.007-.003.013-.003.02a.763.763 0 00-.005.082V24H46.75a.75.75 0 00-.75.75v21.5c0 .414.336.75.75.75h45.5a.75.75 0 00.75-.75v-21.5a.75.75 0 00-.75-.75zM63.5 45.5V44h12v1.5h-12zm12-12.333V42.5h-5.25v-9.333h5.25zM68.75 42.5H63.5v-9.333h5.25V42.5zM77 32.417a.75.75 0 00-.75-.75h-13.5a.75.75 0 00-.75.75V45.5H47.5v-16H57v13.75a.75.75 0 001.5 0V19.4h13.75a.75.75 0 000-1.5H59.906l9.594-7.593 9.594 7.593H75.25a.75.75 0 000 1.5h5.25v23.85a.75.75 0 001.5 0V29.5h9.5v16H77V32.417zM91.5 28H82v-2.5h9.5V28zM57 28h-9.5v-2.5H57V28z" fill="#082947"></path><path d="M50.417 31.667a.75.75 0 00-.75.75v3a.75.75 0 001.5 0v-3a.75.75 0 00-.75-.75zM54.083 31.667a.75.75 0 00-.75.75v3a.75.75 0 001.5 0v-3a.75.75 0 00-.75-.75zM88.583 36.167a.75.75 0 00.75-.75v-3a.75.75 0 00-1.5 0v3c0 .414.336.75.75.75zM84.917 36.167a.75.75 0 00.75-.75v-3a.75.75 0 00-1.5 0v3c0 .414.335.75.75.75zM69.5 21.9a3.637 3.637 0 00-3.633 3.633 3.637 3.637 0 003.633 3.634 3.637 3.637 0 003.633-3.634A3.637 3.637 0 0069.5 21.9zm0 5.767a2.136 2.136 0 01-2.133-2.134c0-1.176.957-2.133 2.133-2.133 1.176 0 2.133.957 2.133 2.133a2.136 2.136 0 01-2.133 2.134z" fill="#082947"></path><g fill="#F7F7F7"><path d="M35.798 28.418c2.108-5.69 2.345-9.798 1.928-12.542-.487-3.207-3.458-5.645-6.576-5.086-3.664.657-3.755 4.689-3.755 4.689s-3.711-1.573-5.802 1.507c-1.779 2.62-.76 6.327 1.972 8.076 2.337 1.497 6.177 2.968 12.233 3.356z"></path></g><g fill="#F5F5F5"><path d="M5.053 37.714c4.014-1.76 6.267-3.697 7.484-5.29 1.421-1.863 1.197-4.63-.657-5.969-2.18-1.573-4.32.402-4.32.402S6.515 24.14 3.866 24.6c-2.254.39-3.668 2.78-3.207 5.076.395 1.966 1.557 4.698 4.394 8.04z"></path></g><g fill="#F5F5F5"><path d="M130.563 29.139c-3.064-5.239-4.01-9.242-4.077-12.018-.077-3.242 2.426-6.16 5.593-6.15 3.723.011 4.513 3.966 4.513 3.966s3.381-2.194 5.975.477c2.207 2.272 1.847 6.098-.54 8.296-2.041 1.88-5.567 3.995-11.464 5.429z"></path></g><g fill="#F0F0F0"><path d="M109.178 37.873c-3.374-2.799-5.005-5.282-5.735-7.15-.854-2.181.124-4.779 2.276-5.555 2.53-.912 4.042 1.577 4.042 1.577s1.753-2.324 4.173-1.152c2.06.996 2.76 3.682 1.683 5.763-.921 1.78-2.791 4.086-6.44 6.517z"></path></g><g opacity="0.632" fill="#F0F0F0"><path d="M98.277 14.912c-2.336-1.938-3.465-3.657-3.97-4.95-.591-1.51.086-3.308 1.575-3.846 1.751-.631 2.799 1.092 2.799 1.092s1.214-1.609 2.889-.798c1.425.69 1.91 2.55 1.165 3.99-.638 1.233-1.933 2.83-4.458 4.512z"></path></g><g opacity="0.632" fill="#F0F0F0"><path d="M27.277 44.912c-2.336-1.938-3.465-3.657-3.97-4.95-.591-1.51.086-3.308 1.575-3.846 1.751-.631 2.799 1.092 2.799 1.092s1.214-1.609 2.889-.798c1.425.69 1.91 2.55 1.165 3.99-.638 1.233-1.933 2.83-4.458 4.512z"></path></g><g opacity="0.632" fill="#F0F0F0"><path d="M50.277 13.912c-2.336-1.938-3.465-3.657-3.97-4.95-.591-1.51.086-3.308 1.575-3.846 1.751-.631 2.799 1.092 2.799 1.092S51.895 4.6 53.57 5.41c1.425.69 1.91 2.55 1.165 3.99-.638 1.233-1.933 2.83-4.458 4.512z"></path></g></g></svg>